<?xml version="1.0" encoding="UTF-8"?>
<svg id="Layer_1" data-name="Layer 1" xmlns="http://www.w3.org/2000/svg" viewBox="0 0 2048 3086">
  <defs>
    <style>
      .cls-1 {
        fill: none;
      }

      .cls-2 {
        fill: #fff;
      }
    </style>
  </defs>
  <g>
    <path d="M840.06,2234.2l106.2,7.96c19.53-10.4,51.36-27.71,54.22-51.98,1.57-13.33-18.25-5.41-29.61-14.43-26.25-20.85-6.28-48.64,19.1-57.92,1.07-15.1-72.84-46.69-87.8-62.16-13.27-13.72-37.01-65.15-40.18-83.95-11.65-69.1,42.1-139.84,34.43-215.56-1.64-16.19-11.45-32.46-9.84-49.71-28.16,4.34-25.6,20.55-56.42,7.11-43.17-18.82-19.32-64.56,4.71-89.81-20.62.99-28.48-10.65-38.79-25.83-13.38,21.94-23.52,23.37-47.07,30.73l3.06,46.76c-34.9,2.44-21.54-49.6-56.83-56.89-4.27,24.34,30.94,56.65,12.82,77.24-29.16,33.14-45.68-26.09-38.76-51.35-22.32,6.96-29.25,16.22-50.77-1.02-7.54-69.35,80.62-41.38,102.46-94.82l-43.26-8.34c-51.6-34.12-.52-81.66,43.42-84.77l-12.99-28.35c-7.3,16.33-111.67,61-111.17,33.6,11.39-12.14,29.7-7.72,37.5-24.52,9.77-21.04-7.19-48.69,14.01-73.91,7-8.33,24.01-15.02,31.55-25.37l46.16-18.43c-60.17-2.15-86.49,45.41-148.94,22.16-17.06-6.35-60.13-40.76-68.64-55.54-11.14-19.34-6.52-53.32-10.06-75.31l36.23-5.13-15.5,12.86,29.19,27.98c23.83-3.86,45.2,1.48,58.7-20.19-12.39,13.69,29.19,41.45,33.71,41.27,16.36-.65-6.38-35.95-8.75-42.93-3.5-10.35,2.04-37.58-13.74-26.85l2.95,5.26c1.28,5.14-25.65,11.85-14.19-5.21,10.36-15.43-5.84-4.21-4.81-9.97l7.99-18.85c77.25-4.21,140.96,57.75,128.39,135.15l49.58,10.04c-18.93-17.48-35.88-33.77-38.53-61.24-1.19-12.33,4.94-21.73.06-37.29-3.39-10.84-41.97-40.49-11.84-34.83,46.53,8.75,88.41,40.72,98.8,87.94,5.64,25.64-14.35,67.35,18.75,71.31l10.44-77.57,20.63,10.29c-11.05-7.67-8.88-39.74-10.43-41.26-1.7-1.67-27.05,2.62-43.54-15.96-5.68-6.4-6.48-16.16-13.51-22.71-10-9.31-33.56-14.95-46.32-21.18-7.44-3.64-12.96,1.11-10.35-12.64l53.5,9.83c6.87-2.05,22.13-32.69,34.54-38.32,13.65-6.19,28,2.93,31.18.44,1.53-1.2,13.34-34.6,13.27-36.55-.09-2.21-19.19-39.7-21.25-38.88-8.98,7.88-2.32,16.12-8.3,27.5-5.42,10.3-28.96,38.77-39.67,43.53-29.29,13.01-108.21,5.51-109.8-34.84,60.59,40.57,58.4-49.38,108.56-56.98l-50.38-9.02c-7.33-3.13-33.31-28.45-36.9-35.53-12.53-24.73-19.33-117.02,25.2-115.75,3.11,11.64-9.5,30.86-4.02,40.24.7,1.2,19.58,17.86,20.85,18.42,13.56,5.98,24.71-1.75,32.34,18.83,24.22-23.45,23.48-53.01,12.97-82.66,8.22-1.61,11.9.88,18.28,4.95,46.02,29.33,86.31,73.59,58.15,130.96-15.36,31.29-46.22,7.24-4.65,58.9,3.48,4.32,4.14,14.77,6.56,16.5,4.83,3.44,23.34-.83,32.56,1.08,35.31,7.31,35.83,22.81,33.91,56.65,38.74-6.66,65.61,8.05,67.63,49.17,1.05,21.31-13.93,33.51-14.42,45.4-.73,17.61,10.36,42.93,14.14,60.58l10.52-85.14c3.27-30.51-16.07-49.4-5.46-80.38-41.09,18.61-74.37-15.68-56.88-56.88-109.44,21.98-87.47-131.49,10.37-103.47-1.74-19.86,2.45-40.76,24.37-45.52,15.51-3.37,32.31,6.25,35-11.02,4.87-31.3-38.07-16.14-50.98-17.39-8.91-.86-18.27-11.34-27.8-13.23-13.51-2.68-23.57,8.14-32.32-3.51,3.86-36.15,40.42-31.35,67.22-23.21,6.16-26.36-24.85-32.85-29.92-55.4-5.99-26.61-6.5-70.06,28.3-73.16,20.5-1.83,3.11,33.79,9.07,51.29,6.12,17.98,31.36,15.12,18.47,35.86,33.13-14.52,32.04,21.33,31.08,46.6,10.99-5.92,11.34-18.44,20.33-28.77,5.73-6.59,28.62-23.48,36.36-25.88,22.91-7.1,63.87,9.62,41.5,26.44-3.79,2.85-12.31-2.7-18.26,1.81-8.31,6.3-15.93,28.66-28.45,34.17-6.87,3.02-24.49-4.12-29.88,3.61-1.42,2.04-11.7,44.67-11.64,48.29.27,18.39,31.79,46.06,10.7,74.8,58.55-23.9,82.1,69.61,20.82,85.62-22.15,5.78-22.63-2.2-41.49-7.94l-.04,36.15,49.37,9.24c8.67-.91,60.03-101.94,58.76-109.38-.66-3.85-23.63-24.78-28.93-38.49-11.02-28.5-8.45-48.41,4.65-75.11,2.59-5.28,25.93-38.08,29.85-42.45,10.23-11.41,21.63-15.14,33.81-23.12,9.81,13.89-9.33,30.12-8.16,43.5,23.62,7.83,31.38,21.83,28.95,47.23-2.41,25.07-32.74,41.08-38.88,64.45,20.68-14.81,37.84-47,64.9-51.42,48.41-7.89,75.97,22.68,121.31,25.6-8.97,7.05-6.46,34.97-7.67,36.44-3.61,4.39-13.04,4.24-17.73,8.2-32.88,27.75-42.32,44.81-93.56,27.76-7.47,7.2,27.33,30.47,29.99,39.81,3.36,11.8-2.38,28.02,3.5,37.88,3.83,6.43,33.62,10.53,23.36,20.58-3.66,3.58-91.23-16.5-100.21-21.32-14.42-7.74-24.15-30.15-35.53-42.07l-9.03-34.86-15.59,51.66c47.14,4.57,57.65,35.45,46.62,77.65l46.48-15.5c7.79,28.65-21.11,22.46-41.35,31.08,33.81,44.1-21.88,115.64-64.68,62.11-8.71,6.98-14.91,13.94-12.89,25.78l20.62-5.2c7.53,35.67,7.79,68.34-10.04,101.19-6.44,11.87-31.03,27.53-30.55,36.03.64,11.31,25.13,6.23,29.04,26.87,3.64,19.23,1.47,28.34-14.2,40.3l20.55,12.93c-.22-24.47,24.77-46.56,29.97-65.79,8.75-32.34,5.66-77.41,17.59-111.29,35.18-99.89,151.47-156.09,253.96-137.29,14.43,2.65,40.28,22.78,40.54,37.48.64,35.84-26.51.98-42.73-4.21-47.12-15.06-83.07,48.81-122.62,72.33-23.93,14.23-54.37,17.94-75.81,32.84-24.65,17.13-50.09,52.43-54.24,82.82,38.04-33.67,63.66-67.8,113.9-85.24,48.83-16.95,113.19-7.59,144.96,36.06,4.04,5.56,4.25,16.19,5.62,17.41,3.38,3,22.45-.98,31.95,1.78,8.37,2.43,18.96,18.52,34.67,14.5-2.97,11.37-7.49,43.61-5.49,53.22,1.36,6.5,40.7,16.86,20.94,50.24-44.11,9.47-61.8-78.08-70.82-82.96-18.1-9.78-79.02-4.06-106.41-11.41-19.97-5.36-44.69-27.32-63.78-29.71-30.84-3.87-82.63,26.67-100.41,51.58,97.9-26.94,189.27-23.21,262.15,53.4,5.18,5.45,4.32,15.35,8.19,18.11,18.88,13.45,6.64,6.87,13.83,13.79,7.58,7.28,23.02,7.75,31.77,16.93,1.82,1.91,25.1,42.74,26.08,45.19,2.95,7.31,6.62,62.25,4.57,64.76-14.68-2.08-5.07-18.12-6.11-19.9-1.36-2.31-31.94-22.76-40.38-34.45-10.89-15.08-17.57-46.62-28.96-53.82-15.69-9.93-51.84-7.45-70.68-12.1-50.18-12.39-83.16-53.93-118.87-88.04-43.85-11.46-98.41,7.92-116.67,51.63-2.24,5.37-9.01,24.72-6.28,27.3,12.81,12.12,21.47-22.33,28.94-30.52,21.65-23.74,72.67-30.82,97.94-10.99,17.22,13.51,31.45,38.66,43.86,54.44,32.4,41.21,84.75,9.36,87.89,12.99.51,8.85,1.05,17.27-2.68,25.73-5.26,11.93-31.52,19.96-28.23,28.44,11.47,29.57,63.93,28.15,85.61,54.13,3.78,4.53,27.72,55.97,28.23,60.23,3.41,28.9-52.04,28.36-36.36-8.19l-10.28,5.25-15.53-25.89c-5.6,21.5,9.11,49.7,5.12,68.76-.46,2.18-28.1,29.6-31.46,31.62-21.42,12.85-41.61,10.39-40.92-17.6h25.87c-10.2-16.15,26.8-76.72,20.64-82.78-14.89-14.65-30.84,44.68-51.69,36.16-2.06-2.12,8.66-53.98,10.47-58.05,3.92-8.83,25.42-8.06,12.71-34.97-13.44-28.48-43.55-30.05-69.75-41.44l41.41,74.95c-.08,11.86-46.64-17.43-51.78-12.84,13.01,26.42,30.43,71.11,12.86,98.2l-18.91-43.05c-18.6-29.9-65.51-44.79-94.12-61.1-25.75-14.68-25.15-37.26-65.37-14.72-1.89,11.41.05,8.25,6.58,11.46,23.94,11.75,91.26,40.22,96.78,68.79,8.95,46.36-23.42,64.37-61.94,43.85,1.71,10.38-2.68,20.13-3.65,30.01-8.23,83.89,36.41,145.28,39.84,226.27,1.75,41.26-29.84,94.7-65.45,115.48-31.66,18.48-45.45-.63-43.05,52.24,35.32.35,29.04,47.98-5.39,41.67-3.56,17.89,10.3,31.41,23.33,41.35,40.81,31.15,109.12,21.43,157.76,15.56-6.31,30.13,6.64,94.94-.72,120.85-4.38,15.4-17.96-.22-28.37-.26-42.4-.17-90.83,6.49-133.83,5.81-79.06-1.25-163.11-14.84-243.25-13-21.7.5-64.13,22.53-59.45-9.93l15.56-.06c-6.57-7.43-.03-14.16-.03-18.07v-85.37ZM1186.71,889.06c-9.96-9.82-31.68,36.75-25.82,46.49l25.82-46.49ZM1197.05,914.93c-13.05-1.35-17.5,8.23-15.47,20.64l15.47-20.64ZM871.05,992.48l-12.86-72.41c-20.31,26.72-25.44,45.45-12.88,77.57,25.38,1.68-.76-30.12-.02-41.37l25.77,36.21ZM1202.2,961.47l5.16-31.07c-11.09,3.11-26.52,35.22-5.16,31.07ZM1072.15,951.82c-51.16-23.73-72.4,14.37-51.03,61.33-16.87-.67-23.25-20.81-37.54-27.11-39.81-17.55-79.04,57.89-29.96,71.55,15.52,4.32,48.74-16.54,51.97-13.34-2.94,26.59-28.93,43.68-2.67,67.32,21.89,19.71,54.65,1.4,54.72-23.1.05-19.5-4.91-34.79-26.14-28.69l5.12,30.99h-20.65c6.01-23.41,7.67-38.89-12.61-55.17l-39.17,3.43.02-20.64c17.83-5.09,35.83,11.22,51.41,7.55,31.08-7.31,3.95-58.61,38.85-48.7,19.33,5.49-13.65,34.35-12.21,43.01,3.82,23.03,35.27,6.94,42.92,8.78,8.04,1.93,11.18,17.46,8.34,20.35-2.5,2.55-25.75-5.21-32.25-6.54-7-1.43-10.14-9.53-9.08,3.91,24.87,23.48,70.87,27.63,72.32-16.12,1.54-46.76-59.23-14.73-61.98-17.48,2.01-21.44,16.57-38.26,9.59-61.34ZM788.29,976.93c6.69-16.5,3.62-22.08-15.46-20.63l5.23,20.65,10.23-.02ZM881.5,1002.83c12.51-4.63,12.66-29.14,2.51-36.19l-2.51,36.19ZM1294.4,978.32c-4.31-3.59-13.72-.65-19.74-1.31l15.49,15.41-41.34,2.62c16.23,19.17,45.74,5.91,67.21,2.56l-12.93-20.63-5.15,10.4c-4.74.74-1.04-6.97-3.54-9.05ZM1238.41,1023.51c10.68-9.25-37.99-33.98-46.51-7.72l46.51,7.72ZM1207.45,1064.92c-2.65,11.02,6.07,11.59,11.77,16.64,18.25,16.18,42,29.32,60.27,6.11-9.42-28.32-30.03-51.96-60.06-58.15-9.72-2.01-9.85,5.94-6.82,9.44,4,4.6,37.18,21.38,45.85,21.46l5.84,30.33c-23.35,3.45-38.62-15.36-56.86-25.82ZM840.06,1049.45c-44.55-4.84-42.1,42.05-72.43,61.98,23.08,2.77,41.21-1.54,62.05-10.36l-30.98-2.5,25.85-13.02-2.68-10.38-18,2.71,36.19-28.43ZM934.81,1104.39c-5-2.98-2.11-15.39-25.05,1.89-27.69,20.86,6.19,36.45,2.69,62.11-3.01,3.59-57.31-58.38-75.4-.21-14.26,45.86,60.18,51.51,80.62,20.96-15.29-.92-41.67,6.73-41.36-15.55,15.2-5.7,50.86,12.65,50.63-6.43-.11-9.2-7.79-23.22-4.07-35,29.7-7.16,6.17,27.19,20.15,44.51,12.24,15.16,38.99,1.2,52.2,15.08,2.63,12.08-10.7,8.1-18.28,7.94-8.27-.17-25.85-10.3-23.02,2.26,31.19,39.65,84.83,18.15,63.27-32.24-20.21-47.23-60.82,6.67-68.46-1.35l6.18-49.47c-1.34-9.73-11.62-9.44-20.1-14.5ZM1185.47,1107.54c-28.92-28.9-68.84,15.49-55.62,50.51,17.04-3.83,18.39-15.48,20.72-31.05l15.64,8.19-15.71,27.98c26.14,2.08,57.88-32.75,34.97-55.63ZM1119.4,1158.04c-2.02-32.7-48.66-53.49-59.89-15.67-7.51,25.29,7.79,41.52,34.09,36.39,6.61,5.62-44.2,59.26-6.93,71.6,39.35,13.03,45.14-30.03,43.16-58.67l-20.65,31.41-15.59-3.02c-3.56-2.8,62.26-60.44-10.39-56.87l.07-15.48,36.14,10.32ZM1207.43,1184.07l-51.74-10.47c-7.98,19.8,28.64,24.41,25.82,38.7-3.27,16.57-29.02-9.09-33.63-12.83-3.94,11.49,18.45,42.61,33.66,39.23,34.36-7.65,18.74-30.04,25.89-54.62ZM1357.44,1183.97c-15.8-3.96-19.56,13.21-26.1,17.6-4.54,3.04-37.17,6.49-22.18,18.59,1.85,1.5,8.74-3.58,6.85,5.09-17.95,6.22-37.33,21.57-51.21,34.19-5.74,5.22-12.98,7.64-10.81,17.59l62.2-38.64c16.15-17.41,35.52-29.96,41.25-54.41ZM928.01,1199.49l-28.37,25.89c-23.07,48.6,68.04,75.12,59.33,13.27-.88-6.25-18.13-43.48-25.76-34.01l-.05,41.39-15.47-.05,10.32-46.49ZM819.32,1261.52c9.33-10.6-46.32-52.67-56.81-56.91,1.72,29.73-8.51,57.5,15.33,80.33,3.94,3.77,10.92,13.14,15.64,5.06l-20.67-23.26,25.92,12.84-20.69-33.58,18.07,10.48,5.14-10.46,18.08,15.5ZM678.79,1229.82c7.12-9.12-14.31-20.01-19.79-14.83-6.41,6.06,13.11,64.21,36.14,62.06l-15.45-15.6,10.3-7.65-20.64-13.06.67-9.78,8.75-1.13ZM1021.2,1349.48c27.34-25.55-5.26-72.35-7.8-103.83l-43.96-9.98c-8.41,41.77,12.5,27.53,30.75,44.24,15.01,13.74,22.9,49.61,21.01,69.56ZM1062.44,1240.86c-.57-.5-10.88-1.93-10.28,2.56l-10.27,131.92c32.68-27.25,23.21-76.45,62.01-100.91-10.51-7-24.01-9.44-33.93-17.96-6.04-5.18-6.77-14.95-7.53-15.61ZM638.28,1287.34c-1.69-7.52-24.98-28.61-31.02-12.86l31.02,12.86ZM721.03,1302.97c-14.25-1.67-33.31-6.42-45.15-14.37-11.76-7.9-13.18-21.95-27.22-21.88-3.97,4.04,24.6,37.64,29.69,40.3,6.81,3.56,38.83,6.91,42.69-4.05ZM969.38,1277.07c-13.86.34-19.1,13.93-34.07,15.49-17.25,1.79-23.46-9.02-38.34-10.29,22.52,25.03,32.11,43.94,24.68,78.98-4.61,21.74-27.32,30.96-14.04,60.36l30.75.25c-15.92-26.33,6.66-38.65,9.61-50.09,2.01-7.82-5.81-21.67-4.36-34.72,1.41-12.67,29.04-56.67,25.78-59.98ZM1140.12,1277.03c-35.23-3.01-54.5,29.61-61.55,60.1-1.76,7.62-.38,8.69,7.31,7.26,21-3.91,28.7-37.23,30.96-36.28,24.06,10.14-29.46,51.69-5.07,56.86,21.72,4.61,32.39-73.23,28.36-87.94ZM912.45,1333.95c-1.8-21.04-18.16-47.86-41.32-46.54,1.63,9.55-3.32,27.95,1.05,35.18,1.47,2.42,9.32,3.02,11.86,5.96,5.49,6.34,5.76,15.79,12.89,15.72l-12.91-41.34,28.43,31.02ZM990.06,1313.25l7.81,30.95c17.83-9.45,1.01-54.35-10.44-56.79-15.79-3.36-47.07,68.81-20.62,82.66l11.97-7.33c-.25-12.83-.6-29.36,1.06-41.77.94-7.03,2.77-15.8,10.23-7.71ZM1398.82,1308.16c-2.71-3.68-26.03-7.76-25.85,5.05l25.82,5.22c-.3-3.18.87-9.15.04-10.27ZM803.85,1328.83l-62.07-10.42-5.14,72.46c20.17-3.85,25.33-30.97,38.59-41.53,5.53-4.4,38.64-10.51,28.62-20.51ZM891.8,1359.78c-6.32-10.16-8.39-25.51-20.64-30.99-2.5,7.23,11.89,39.44,20.64,30.99ZM1395.27,1337.2c-2.9-1.68,1.65-15.95-15.4-1.2-2.8,2.42-1.46,8.03-1.82,8.26-1.86,1.19-26.87-19.26-41.3-10.26,24.24,21.35,69.25,37.87,98.28,18.03-13.31-5.47-26.96-7.41-39.76-14.84ZM690,1349.5c-33.29,11.17-28.78,45.01-31.02,72.37,13.09,4.58,21.61,3.6,31.02-7.75l-15.55-.06c2.39-17.16,2.69-25.88,15.56-38.68l-15.47-2.56,15.45-23.32ZM814.17,1349.5c-21.7,2.86-42.57,18.9-46.46,41.21,10.49,1.5,17.07,11.07,28.38,11.07,8.49,0,37.5-12.32,25.92-21.21-31.69,22.05-42.71,16.28-7.84-7.83l-15.53-5.09,15.53-18.14ZM896.92,1452.92c13.69-38.3-16.12-66.12-38.77-93.07-4.68,27.47-26.54,41.26-47.39,56.19-13.29,9.52-29.23,8.11-6.97,31.72,9.7-34.46,43.48-54.72,74.77-30.72l18.37,35.87ZM1025.68,1360.51l-25.16,2-54.6,38.61,23.47,41.45c-11.57,3.94-24.49-11.1-32.83-9.53-24.36,4.6-16.4,50.02-12.58,67.92,9.34,43.76,53.46,1.08,55.72,3.73.28,17.99-24.11,43.91-10.87,59.85,13.38,16.11,30.44,1.81,44.79,2,15.24.19,29.01,9.64,44.05,3.18,13.51-9.23-4.07-39.81-.27-44.33l43.95,25.44c3.89-.02,33.65-55.58,33.7-59.15.32-22.84-50.34-25.56-67.37-23.19v15.47c10.5-2.92,33.64,5.6,31.05,18.06-4.17,20.04-31.72-6.81-33.65-6.8-3.39.02-15.4,15.79-20.64,20.02-5.03,4.07-15.1,3.71-17.06,6.02-5.14,6.06,4.07,30.62-21.73,24.79,7.18-42.71,6.26-22.05-13.13-35.88-8.05-5.74-19.89-30.54-25.63-30.47-2.24.02-7.08,7.07-11.49,8.36-26.21,7.66-22.08-40.8,13.97-19.55-3.74-12.49,19.15-46.47,19.12-49.14-.04-3.14-6.36-7.42-7.52-11.48-6.36-22.29,31.21-26.14,19.48,3.62l36.2.05-10.96-51.05ZM1092.24,1371.58c-28.21-27.21-63.42,49.46-32.22,60.63,11.19,4.01,7.97-12.97,15.54-15.37,7.84-2.48,14.04,1.38,17.77,8.2l-15.27,38.21c22.34-3.18,42.95-9.6,56.79-28.41-24.6-9.84-32.59-53.61-42.61-63.27ZM766.76,1407.33c-7.17-4.2-20.35-.03-25.47,6.33-21.94,27.25,32.62,74.6,41.84,65.14,3.52-15.96-2.49-63.36-16.37-71.47ZM1435,1452.96l-39.56-9.04-53.51-37.48c17.35,20.34,57.28,64.91,85.61,60.42,5.52-.87,9.95-9.43,7.47-13.9ZM864.66,1428.35c-30.76-30.76-68.39,48.45-60.8,55.61,29.15,12.15,88.88-27.53,60.8-55.61ZM1051.02,1488.09c6.26-10.94-2.3-47.62-11.71-55.86-41.22-36.06-80.99,65.66-14.97,67.23,6.08.14,24.64-7.8,26.68-11.37ZM1383.3,1525.41c-66.19,12.58-64.79-58.48-110.24-78.59-18.33-8.11-43.78-10.33-60.46,3.57,34.89,1.31,63.04,10.85,84.9,39.22,24.11,31.29,20.59,60,73.23,46.2,8.51-2.23,15.12,5.35,12.57-10.4ZM907.27,1509.87c-.15-19.55,12.99-48.27-15.38-51.71l-15.63,30.96c18.54-3.07,18.79,13.34,31.01,20.75ZM1257.49,1470.17c-58.23-29.64-94.38,38.17-42.28,75.86,32.72,23.67,65.67,17.01,100.81,31.07,12.43-13.9-43.5-99.28-58.54-106.93ZM729,1470.95c-29.98-2.25-61.89,27.43-33.57,46.46,27.4,18.41,55.27-12.28,72.1-30.82.08-3.75-33.28-15.24-38.53-15.64ZM859.26,1495.93c-9.41-.31-47.07,3.31-49.87,11.93-9.27,28.46,41.28,49.75,66.83,41.16,40.05-13.47,15.3-52.02-16.96-53.08ZM1170.79,1560.92c1.97-2.74-12.01-52.26.34-66.57-14.05,1.6-32.62,19.29-38.64,31.36-2.7,5.42-.48,29.85-8.75,35-10.58,6.58-40.26-1.59-50.81-9.45-9.42,31.26,21.46,35.34,44.64,35.85,7.92.17,50.49-22.37,53.22-26.18ZM771.34,1591.07c11.48-9.24,10.85-38.56,16.21-52.29l-27.68-23.65c-34.77,20.25-37.58,115.41,11.47,75.94ZM953.82,1535.81c-1.07-1.04-15.36.8-21.95-1.21-7.34-2.24-9.95-11.54-19.37-9.16,8.93,9.26.15,25.91,2.6,31.39,2.26,5.04,12.07,7.39,16.39,11.69,14.53,14.47,12.02,24.5,43.09,18.91-19.51-8.53-18.69-49.61-20.76-51.61ZM1195.71,1542.13c-1.71-2.95-15.98-6.26-14.24-16.71-7.88-1.51-6.15,7.93-5.35,13.06,1.96,12.6,9.3,27.05,20.89,33.46-1.12-8.91,3.03-22.37-1.29-29.82ZM849.3,1572.96c-3.49-5.99-47.5-33.32-55.75-42.4-3.45,25.95-.32,52.02,22.81,67.63,23.14,15.62,44.84-4.83,32.94-25.23ZM1222.9,1587.45c.81-13.82,2.67-32.21-15.47-30.99-.81,13.82-2.67,32.21,15.47,30.99ZM922.83,1592.61c-13.44-46.35-23.36-20.75-56.89-20.63,3,11.78,6.76,19.61,0,30.97l56.89-10.34ZM1248.77,1602.97c1.62-15.18.48-30.01-15.44-36.19l-5.07,30.73,20.51,5.45ZM1274.64,1613.32c1.99-13.65-2.08-25.86-15.44-31.02l-.03,31.07,15.47-.05ZM726.19,1618.51c4.63-4.83-27.48-55.21-25.67-10.55l25.67,10.55ZM1222.9,1680.57c2.33-8.97-3.72-10.34-7.7-15.53-48.3-62.98-153.97-67.27-227.9-62.27-24.54,1.66-115.94,19.36-133.71,31.85-4.83,3.4-18.62,25.14-18.58,27.9.17,10.83,7.76,4.79,12.83,2.7,95.05-39.1,177.45-54.3,279.03-25.69,38.24,10.77,55.58,47.05,96.02,41.04ZM1295.26,1608.21c-28.68-1.64,8.37,38.26,15.62,30.95l-15.62-30.95ZM1010.87,1696.11c-4.21-18.01-12.33-53.74-36.25-44l15.48,43.97c-9.77,9.86-30.75-50.52-51.73-41.29,9.28,13.74,20.1,20.14,20.85,38.7.34,8.44-4.59,12.84-10.43,7.8-2.56-2.21-11.02-40.6-31.12-36.15,6.22,15.76,22.53,27.76,20.64,46.51l-23.26-25.84,12.91,36.19-25.82-15.47c19.56,40.83,21.24,91.29,14.18,135.71-3.22,20.24-15.18,30.57-18.32,43.77-11.17,47.02-6.37,110.69,29.96,146.41-25.42-57.45-14.11-111.34-5.11-170.77l15.48.02c3.96,3.83-12.04,88.9-9.18,109.69,1.07,7.78,24.53,87.21,40.25,71.36-29.22-42.99-30.61-98.78-15.74-147.62,2.11-6.92.39-16.07,10.52-17.89-5.08,55.47-9.59,103.42,15.63,155.2,17.79-5.7,2.62-16.55,1.11-29.64-.63-5.5-5.07-66.9,9.15-47.93-4.1,35.65,9.92,75.06,36.19,98.27,12.9-42.92,28.29-85.04,10.41-129.29,13.08-2.3,9.43,1.82,12.65,10.33,14.29,37.64,9.52,76.61-2.26,113.8,49.4-42.64,17.78-109.82-.02-160.36,10.81-2.04,12.23,4.99,15.82,12.58,22.15,46.87,36.77,92.19,15.25,142.6,53.13-53.5-7.24-120.01-10.43-178.67-.58-10.68-2.47-20.87,7.79-28.18l36.4,113.54,7.51,72.58c31.08-77.03-33.87-148.96-20.58-227.61,20.52,12.45,14.6,41.83,20.94,64.38,6.66,23.72,20.99,48.88,24.36,73.94,2.84,21.06.5,42.35,1.27,63.43,7.56.49,9.19-18.7,9.68-23.87,7.54-78.7-36.78-131.8-30.18-200.96.69-7.19,8.36-12,8.71-19.77.76-16.76-5.99-47.9-9.03-65.77-13.78,5.89-3.52,44.15-25.78,41.32,4.4-19.06,6.62-40.6-7.81-56.86l-10.3,46.51c-14.5-23.68-1.9-53.1-33.61-67.23,3.7,15.38,7,31.07,3.54,46.87-1.87,8.54-1.66,12.01-8.71,4.87-2.54-2.57-5.76-49.36-25.87-51.75-5.71,12.53,17.95,49.66-5.15,46.55ZM1186.66,1918.59c-2.72-31.92-18.58-60.78-24.47-91.87-4.53-23.89-1.03-48.56-3.32-70.13-.51-4.8-1.24-15.26-8.3-13.88l-13.63,23.1c8.49,46.4,19.37,92.41,38,136.09,2.72,6.38,2.77,15.27,11.71,16.69ZM1181.48,1985.83c1.99-17.29,11.96-28.55,5.17-46.51-7.7-.82-9.06,13.3-9.82,18.54-.81,5.64-4.91,28.1,4.64,27.97ZM1013.38,2120.37c14.13,3.7,58.89,0,77.61,0,8.81,0,6.03-20.65-.88-20.91-9.1-.34-22.24,5.75-35.26,5.8-12.16.05-35.75-6.56-41.01-5.37-10.47,2.37-9.78,18.04-.47,20.48ZM1004.09,2137c-13.56,4.11-19.12,21.87-5.97,24.51,3.03.61,17.12-4.96,25.39-5.17,24.54-.64,46.62,3.53,69.05,4.27,21.39.71,22.17-16.32,3.6-19.53-12.23-2.11-83.04-6.82-92.06-4.08ZM1119.45,2244.49c-20.93-11.6-29.06-59.26-43.91-62.1-6.19-1.18-46.82-.95-48.65.65-1.43,1.25-6.1,24.93-13.8,35.31-9.5,12.81-29.75,15.54-20.33,26.26l93.05-4.12,33.65,4ZM1160.77,2316.94c7.11-16.18,9.28-47.78-12.84-51.7-73.07,4.02-162-8.47-233.11-.25-18.77,2.17-25.64,11.93-10.07,26.1l5.56-10.72c34.93,6.48,2.25,18.8,12.59,41.77l15.84-3.1-.39-27.89c22.03-4.01,22.13,13.37,20.68,31.02l127,3.08c24.53-10.61-1.44-44.09,30.77-44.55l5.15,36.22,15.67-46.46c12.24-1.58,7.39,19.48,10.67,30.62.98,3.32,6.97,16.93,12.47,15.86ZM1197.02,2270.39c-6.81-8.42-9.4.74-10.35,7.71-2.13,15.72-1.42,41.23,15.5,49.22l-5.15-56.94ZM1233.2,2270.43c-20.04-3.36-3.71,12.65-4.6,22.77-.53,5.93-13.18-.53-10.8,8.19l20.63,5.21-5.22-36.17Z"/>
    <path class="cls-2" d="M1010.87,1696.11c23.1,3.11-.56-34.02,5.15-46.55,20.11,2.39,23.33,49.18,25.87,51.75,7.05,7.13,6.84,3.67,8.71-4.87,3.46-15.8.16-31.49-3.54-46.87,31.7,14.13,19.1,43.55,33.61,67.23l10.3-46.51c14.43,16.25,12.21,37.8,7.81,56.86,22.26,2.83,12-35.44,25.78-41.32,3.04,17.87,9.79,49.01,9.03,65.77-.35,7.76-8.03,12.58-8.71,19.77-6.6,69.16,37.71,122.26,30.18,200.96-.49,5.17-2.13,24.36-9.68,23.87-.77-21.08,1.57-42.37-1.27-63.43-3.38-25.06-17.71-50.22-24.36-73.94-6.33-22.55-.42-51.93-20.94-64.38-13.29,78.65,51.66,150.57,20.58,227.61l-7.51-72.58-36.4-113.54c-10.26,7.31-8.37,17.5-7.79,28.18,3.19,58.66,63.55,125.17,10.43,178.67,21.53-50.42,6.9-95.73-15.25-142.6-3.59-7.59-5.01-14.62-15.82-12.58,17.81,50.54,49.43,117.72.02,160.36,11.78-37.19,16.55-76.16,2.26-113.8-3.23-8.5.43-12.63-12.65-10.33,17.88,44.25,2.49,86.38-10.41,129.29-26.27-23.21-40.28-62.62-36.19-98.27-14.22-18.97-9.78,42.43-9.15,47.93,1.51,13.09,16.67,23.94-1.11,29.64-25.22-51.78-20.72-99.73-15.63-155.2-10.12,1.82-8.41,10.97-10.52,17.89-14.87,48.85-13.48,104.63,15.74,147.62-15.72,15.85-39.18-63.58-40.25-71.36-2.86-20.79,13.14-105.87,9.18-109.69l-15.48-.02c-9.01,59.43-20.31,113.33,5.11,170.77-36.33-35.73-41.13-99.39-29.96-146.41,3.14-13.2,15.1-23.54,18.32-43.77,7.06-44.42,5.38-94.88-14.18-135.71l25.82,15.47-12.91-36.19,23.26,25.84c1.89-18.75-14.42-30.75-20.64-46.51,20.09-4.44,28.56,33.95,31.12,36.15,5.83,5.03,10.77.64,10.43-7.8-.75-18.56-11.56-24.95-20.85-38.7,20.98-9.23,41.97,51.15,51.73,41.29l-15.48-43.97c23.92-9.73,32.04,26,36.25,44ZM969.43,1840.96c13.19,15.9,25.81-52.09,25.45-59.98-.63-13.5-.89-23.63-12.56-33.1l-12.88,93.08ZM1020.42,1753.81c-22.57-13.87-9.66,18.85-9.2,32.73.47,14.41-1.4,30.32-5.59,44.04,17.81,9.55,25.02-27.59,25.63-39.51.4-7.94-6.71-34.73-10.84-37.27ZM953.86,1840.96c.77-25.89,21.13-76.51-15.47-82.73-1.36,13.38,5.45,25.57,5.6,38.78.19,16.07-17.3,42.56,9.86,43.96Z"/>
    <path class="cls-2" d="M1025.68,1360.51l10.96,51.05-36.2-.05c11.73-29.76-25.84-25.91-19.48-3.62,1.16,4.06,7.48,8.34,7.52,11.48.03,2.67-22.85,36.65-19.12,49.14-36.05-21.24-40.18,27.22-13.97,19.55,4.42-1.29,9.26-8.34,11.49-8.36,5.75-.06,17.59,24.74,25.63,30.47,19.4,13.83,20.31-6.83,13.13,35.88,25.8,5.83,16.59-18.73,21.73-24.79,1.96-2.31,12.03-1.95,17.06-6.02,5.24-4.24,17.25-20,20.64-20.02,1.93-.01,29.48,26.85,33.65,6.8,2.59-12.46-20.54-20.98-31.05-18.06v-15.47c17.04-2.37,67.69.35,67.38,23.19-.05,3.57-29.81,59.13-33.7,59.15l-43.95-25.44c-3.8,4.53,13.78,35.1.27,44.33-15.04,6.45-28.81-2.99-44.05-3.18-14.36-.18-31.41,14.11-44.79-2-13.24-15.94,11.15-41.86,10.87-59.85-2.26-2.65-46.38,40.03-55.72-3.73-3.82-17.9-11.78-63.32,12.58-67.92,8.34-1.57,21.25,13.47,32.83,9.53l-23.47-41.45,54.6-38.61,25.16-2Z"/>
    <path class="cls-2" d="M1072.15,951.82c6.98,23.07-7.57,39.89-9.59,61.34,2.75,2.75,63.52-29.28,61.98,17.48-1.45,43.75-47.44,39.59-72.32,16.12-1.06-13.45,2.08-5.34,9.08-3.91,6.49,1.32,29.75,9.09,32.25,6.54,2.84-2.9-.3-18.43-8.34-20.35-7.65-1.83-39.1,14.25-42.92-8.78-1.43-8.66,31.55-37.51,12.21-43.01-34.9-9.92-7.77,41.38-38.85,48.7-15.58,3.67-33.59-12.65-51.41-7.55l-.02,20.64,39.17-3.43c20.28,16.28,18.62,31.76,12.61,55.17h20.65s-5.12-30.99-5.12-30.99c21.22-6.09,26.19,9.2,26.14,28.69-.07,24.5-32.83,42.81-54.72,23.1-26.26-23.64-.28-40.73,2.67-67.32-3.23-3.21-36.45,17.66-51.97,13.34-49.08-13.66-9.86-89.1,29.96-71.55,14.29,6.3,20.67,26.44,37.54,27.11-21.38-46.96-.13-85.06,51.03-61.33Z"/>
    <path class="cls-2" d="M1160.77,2316.94c-5.49,1.07-11.49-12.54-12.47-15.86-3.28-11.14,1.57-32.2-10.67-30.62l-15.67,46.46-5.15-36.22c-32.2.46-6.24,33.94-30.77,44.55l-127-3.08c1.45-17.65,1.35-35.03-20.68-31.02l.39,27.89-15.84,3.1c-10.34-22.96,22.34-35.29-12.59-41.77l-5.56,10.72c-15.57-14.18-8.7-23.94,10.07-26.1,71.11-8.21,160.04,4.27,233.11.25,22.12,3.92,19.95,35.52,12.84,51.7Z"/>
    <path class="cls-2" d="M1222.9,1680.57c-40.44,6.01-57.78-30.27-96.02-41.04-101.58-28.61-183.98-13.41-279.03,25.69-5.08,2.09-12.67,8.13-12.83-2.7-.04-2.76,13.75-24.5,18.58-27.9,17.77-12.49,109.17-30.19,133.71-31.85,73.92-5,179.6-.71,227.9,62.27,3.98,5.19,10.04,6.56,7.7,15.53Z"/>
    <path class="cls-2" d="M934.81,1104.39c8.48,5.06,18.76,4.78,20.1,14.5l-6.18,49.47c7.64,8.02,48.25-45.89,68.46,1.35,21.56,50.39-32.08,71.89-63.27,32.24-2.83-12.56,14.74-2.43,23.02-2.26,7.58.16,20.91,4.14,18.28-7.94-13.21-13.88-39.97.08-52.2-15.08-13.98-17.33,9.54-51.67-20.15-44.51-3.72,11.79,3.96,25.8,4.07,35,.23,19.08-35.43.73-50.63,6.43-.31,22.28,26.07,14.63,41.36,15.55-20.44,30.55-94.88,24.9-80.62-20.96,18.08-58.17,72.39,3.81,75.4.21,3.5-25.66-30.38-41.25-2.69-62.11,22.94-17.28,20.06-4.88,25.05-1.89Z"/>
    <path class="cls-2" d="M1257.49,1470.17c15.04,7.65,70.96,93.03,58.54,106.93-35.14-14.06-68.1-7.4-100.81-31.07-52.1-37.69-15.95-105.5,42.28-75.86ZM1222.89,1489.14c-20.26-5.18-7.26,34.06-2.34,41.21,3.67,5.34,33.62,20.8,36.04,20.79,24.02-.17-19.77-25.74-22.59-29.05-8.04-9.43-12.42-20.35-11.1-32.95Z"/>
    <path class="cls-2" d="M1119.45,2244.49l-33.65-4-93.05,4.12c-9.42-10.71,10.82-13.45,20.33-26.26,7.71-10.39,12.37-34.07,13.8-35.31,1.83-1.6,42.46-1.83,48.65-.65,14.86,2.83,22.98,50.5,43.91,62.1Z"/>
    <path class="cls-2" d="M1119.4,1158.04l-36.14-10.32-.07,15.48c72.66-3.56,6.84,54.08,10.39,56.87l15.59,3.02,20.65-31.41c1.99,28.64-3.81,71.69-43.16,58.67-37.27-12.34,13.54-65.98,6.93-71.6-26.3,5.13-41.6-11.1-34.09-36.39,11.22-37.82,57.87-17.03,59.89,15.67Z"/>
    <path class="cls-2" d="M969.38,1277.07c3.26,3.31-24.37,47.31-25.78,59.98-1.45,13.04,6.37,26.9,4.36,34.72-2.95,11.44-25.53,23.77-9.61,50.09l-30.75-.25c-13.28-29.41,9.43-38.63,14.04-60.36,7.43-35.04-2.16-53.95-24.68-78.98,14.88,1.27,21.09,12.08,38.34,10.29,14.96-1.55,20.21-15.15,34.07-15.49Z"/>
    <path class="cls-2" d="M1092.24,1371.58c10.02,9.66,18.01,53.43,42.61,63.27-13.84,18.81-34.45,25.23-56.79,28.41l15.27-38.21c-3.74-6.82-9.94-10.68-17.77-8.2-7.57,2.39-4.35,19.37-15.54,15.37-31.2-11.18,4.01-87.84,32.22-60.63Z"/>
    <path class="cls-2" d="M1170.79,1560.92c-2.73,3.81-45.3,26.36-53.22,26.18-23.18-.51-54.07-4.59-44.64-35.85,10.55,7.86,40.24,16.03,50.81,9.45,8.27-5.14,6.05-29.58,8.75-35,6.02-12.07,24.59-29.77,38.64-31.36-12.36,14.31,1.62,63.83-.34,66.57Z"/>
    <path class="cls-2" d="M859.26,1495.93c32.26,1.06,57.01,39.62,16.96,53.08-25.55,8.59-76.1-12.69-66.83-41.16,2.81-8.62,40.47-12.24,49.87-11.93Z"/>
    <path class="cls-2" d="M1062.44,1240.86c.76.67,1.49,10.43,7.53,15.61,9.92,8.51,23.42,10.95,33.93,17.96-38.8,24.46-29.33,73.66-62.01,100.91l10.27-131.92c-.6-4.5,9.71-3.07,10.28-2.56Z"/>
    <path class="cls-2" d="M1051.02,1488.09c-2.04,3.57-20.6,11.51-26.68,11.37-66.02-1.56-26.25-103.29,14.97-67.23,9.41,8.23,17.97,44.91,11.71,55.86ZM1031.47,1473.62c3.77-3.75-1.98-23.1-12.83-20.64-15.67,3.55,1.9,31.53,12.83,20.64Z"/>
    <path class="cls-2" d="M771.34,1591.07c-49.06,39.47-46.24-55.69-11.47-75.94l27.68,23.65c-5.36,13.73-4.73,43.06-16.21,52.29Z"/>
    <path class="cls-2" d="M1383.3,1525.41c2.55,15.75-4.05,8.16-12.57,10.4-52.63,13.8-49.12-14.91-73.23-46.2-21.86-28.37-50.01-37.91-84.9-39.22,16.68-13.9,42.13-11.68,60.46-3.57,45.45,20.11,44.05,91.17,110.24,78.59Z"/>
    <path class="cls-2" d="M1140.12,1277.03c4.03,14.71-6.64,92.55-28.36,87.94-24.39-5.18,29.13-46.72,5.07-56.86-2.26-.95-9.95,32.36-30.96,36.28-7.69,1.43-9.07.36-7.31-7.26,7.05-30.49,26.33-63.11,61.55-60.1Z"/>
    <path class="cls-2" d="M928.01,1199.49l-10.32,46.49,15.47.05.05-41.39c7.63-9.47,24.88,27.77,25.76,34.01,8.71,61.85-82.4,35.32-59.33-13.27l28.37-25.89Z"/>
    <path class="cls-2" d="M729,1470.95c5.25.39,38.61,11.88,38.53,15.64-16.83,18.54-44.7,49.23-72.1,30.82-28.33-19.03,3.58-48.71,33.57-46.46Z"/>
    <path class="cls-2" d="M864.66,1428.35c28.08,28.08-31.65,67.76-60.8,55.61-7.6-7.16,30.04-86.37,60.8-55.61Z"/>
    <path class="cls-2" d="M896.92,1452.92l-18.37-35.87c-31.29-24-65.07-3.74-74.77,30.72-22.26-23.61-6.32-22.21,6.97-31.72,20.86-14.94,42.72-28.72,47.39-56.19,22.66,26.96,52.47,54.77,38.77,93.07Z"/>
    <path class="cls-2" d="M1185.47,1107.54c22.9,22.89-8.84,57.71-34.97,55.63l15.71-27.98-15.64-8.19c-2.32,15.56-3.68,27.21-20.72,31.05-13.22-35.02,26.7-79.41,55.62-50.51Z"/>
    <path class="cls-2" d="M1021.2,1349.48c1.89-19.95-5.99-55.82-21.01-69.56-18.25-16.71-39.16-2.47-30.75-44.24l43.96,9.98c2.55,31.48,35.14,78.28,7.8,103.83Z"/>
    <path class="cls-2" d="M766.76,1407.33c13.87,8.11,19.89,55.51,16.37,71.47-9.22,9.46-63.78-37.89-41.84-65.14,5.12-6.36,18.3-10.53,25.47-6.33Z"/>
    <path class="cls-2" d="M849.3,1572.96c11.89,20.4-9.8,40.85-32.94,25.23-23.12-15.61-26.26-41.68-22.81-67.63,8.25,9.08,52.26,36.41,55.75,42.4Z"/>
    <path class="cls-2" d="M1207.43,1184.07c-7.16,24.58,8.47,46.97-25.89,54.62-15.2,3.38-37.59-27.74-33.66-39.23,4.61,3.74,30.36,29.41,33.63,12.83,2.82-14.3-33.8-18.9-25.82-38.7l51.74,10.47Z"/>
    <path class="cls-2" d="M803.85,1328.83c10.02,9.99-23.1,16.11-28.62,20.51-13.26,10.55-18.42,37.68-38.59,41.53l5.14-72.46,62.07,10.42Z"/>
    <path class="cls-2" d="M819.32,1261.52l-18.08-15.5-5.14,10.46-18.07-10.48,20.69,33.58-25.92-12.84,20.67,23.26c-4.72,8.08-11.7-1.29-15.64-5.06-23.84-22.83-13.61-50.6-15.33-80.33,10.49,4.24,66.14,46.31,56.81,56.91Z"/>
    <path class="cls-2" d="M1186.66,1918.59c-8.95-1.42-8.99-10.31-11.71-16.69-18.63-43.69-29.51-89.69-38-136.09l13.63-23.1c7.06-1.38,7.79,9.07,8.3,13.88,2.29,21.57-1.21,46.24,3.32,70.13,5.89,31.09,21.75,59.95,24.47,91.87Z"/>
    <path class="cls-2" d="M1004.09,2137c9.02-2.73,79.83,1.97,92.06,4.08,18.57,3.21,17.79,20.23-3.6,19.53-22.43-.74-44.51-4.91-69.05-4.27-8.26.21-22.35,5.78-25.39,5.17-13.14-2.64-7.59-20.41,5.97-24.51Z"/>
    <path class="cls-2" d="M990.06,1313.25c-7.46-8.08-9.3.69-10.23,7.71-1.65,12.41-1.31,28.94-1.06,41.77l-11.97,7.33c-26.46-13.85,4.83-86.02,20.62-82.66,11.46,2.44,28.27,47.34,10.44,56.79l-7.81-30.95Z"/>
    <path class="cls-2" d="M1357.44,1183.97c-5.73,24.45-25.1,37-41.25,54.41l-62.2,38.64c-2.17-9.95,5.07-12.37,10.81-17.59,13.87-12.62,33.26-27.97,51.21-34.19,1.89-8.67-5-3.59-6.85-5.09-14.99-12.1,17.64-15.55,22.18-18.59,6.54-4.38,10.3-21.56,26.1-17.6Z"/>
    <path class="cls-2" d="M953.82,1535.81c2.07,2,1.25,43.08,20.76,51.61-31.08,5.6-28.56-4.43-43.09-18.91-4.32-4.3-14.13-6.65-16.39-11.69-2.45-5.48,6.32-22.13-2.6-31.39,9.42-2.38,12.03,6.92,19.37,9.16,6.59,2.01,20.87.17,21.95,1.21Z"/>
    <path class="cls-2" d="M1207.45,1064.92c18.24,10.46,33.51,29.27,56.86,25.82l-5.84-30.33c-8.67-.08-41.85-16.86-45.85-21.46-3.04-3.49-2.91-11.44,6.82-9.44,30.02,6.19,50.64,29.83,60.06,58.15-18.26,23.22-42.01,10.08-60.27-6.11-5.7-5.05-14.42-5.62-11.77-16.64Z"/>
    <path class="cls-2" d="M840.06,1049.45l-36.19,28.43,18-2.71,2.68,10.38-25.85,13.02,30.98,2.5c-20.84,8.82-38.96,13.13-62.05,10.36,30.34-19.94,27.88-66.82,72.43-61.98Z"/>
    <path class="cls-2" d="M1013.38,2120.37c-9.32-2.44-10.01-18.11.47-20.48,5.26-1.19,28.85,5.41,41.01,5.37,13.02-.05,26.16-6.14,35.26-5.8,6.91.26,9.68,20.91.88,20.91-18.72,0-63.48,3.7-77.61,0Z"/>
    <path class="cls-2" d="M1395.27,1337.2c12.8,7.43,26.45,9.36,39.76,14.84-29.03,19.84-74.03,3.31-98.28-18.03,14.42-9,39.44,11.44,41.3,10.26.36-.23-.99-5.83,1.82-8.26,17.05-14.75,12.5-.49,15.4,1.2Z"/>
    <path class="cls-2" d="M922.83,1592.61l-56.89,10.34c6.76-11.36,3-19.19,0-30.97,33.53-.12,43.45-25.72,56.89,20.63Z"/>
    <path class="cls-2" d="M814.17,1349.5l-15.53,18.14,15.53,5.09c-34.88,24.12-23.85,29.89,7.84,7.83,11.58,8.89-17.43,21.21-25.92,21.21-11.31,0-17.89-9.57-28.38-11.07,3.89-22.31,24.76-38.35,46.46-41.21Z"/>
    <path class="cls-2" d="M871.05,992.48l-25.77-36.21c-.74,11.26,25.41,43.05.02,41.37-12.55-32.12-7.42-50.85,12.88-77.57l12.86,72.41Z"/>
    <path class="cls-2" d="M690,1349.5l-15.45,23.32,15.47,2.56c-12.88,12.8-13.18,21.53-15.56,38.68l15.55.06c-9.42,11.35-17.93,12.33-31.02,7.75,2.24-27.36-2.27-61.2,31.02-72.37Z"/>
    <path class="cls-2" d="M1435,1452.96c2.48,4.47-1.95,13.03-7.47,13.9-28.33,4.49-68.26-40.08-85.61-60.42l53.51,37.48,39.56,9.04Z"/>
    <path class="cls-2" d="M912.45,1333.95l-28.43-31.02,12.91,41.34c-7.12.06-7.4-9.38-12.89-15.72-2.54-2.94-10.39-3.54-11.86-5.96-4.37-7.23.58-25.63-1.05-35.18,23.16-1.32,39.52,25.5,41.32,46.54Z"/>
    <path class="cls-2" d="M1294.4,978.32c2.5,2.08-1.2,9.79,3.54,9.05l5.15-10.4,12.93,20.63c-21.47,3.35-50.98,16.61-67.21-2.56l41.34-2.62-15.49-15.41c6.01.66,15.43-2.28,19.74,1.31Z"/>
    <path class="cls-2" d="M907.27,1509.87c-12.22-7.4-12.47-23.81-31.01-20.75l15.63-30.96c28.37,3.44,15.23,32.16,15.38,51.71Z"/>
    <path class="cls-2" d="M678.79,1229.82l-8.75,1.13-.67,9.78,20.64,13.06-10.3,7.65,15.45,15.6c-23.03,2.15-42.56-56-36.14-62.06,5.48-5.18,26.9,5.72,19.79,14.83Z"/>
    <path class="cls-2" d="M721.03,1302.97c-3.86,10.96-35.88,7.62-42.69,4.05-5.09-2.66-33.66-36.26-29.69-40.3,14.04-.07,15.46,13.98,27.22,21.88,11.84,7.95,30.91,12.7,45.15,14.37Z"/>
    <path class="cls-2" d="M1197.02,2270.39l5.15,56.94c-16.92-7.99-17.63-33.5-15.5-49.22.94-6.98,3.53-16.14,10.35-7.71Z"/>
    <path class="cls-2" d="M1238.41,1023.51l-46.51-7.72c8.51-26.26,57.19-1.53,46.51,7.72Z"/>
    <path class="cls-2" d="M1248.77,1602.97l-20.51-5.45,5.07-30.73c15.92,6.18,17.06,21.01,15.44,36.19Z"/>
    <path class="cls-2" d="M1195.71,1542.13c4.32,7.44.18,20.91,1.29,29.82-11.59-6.41-18.93-20.86-20.89-33.46-.8-5.14-2.53-14.58,5.35-13.06-1.74,10.45,12.53,13.76,14.24,16.71Z"/>
    <path class="cls-2" d="M1233.2,2270.43l5.22,36.17-20.63-5.21c-2.37-8.72,10.28-2.25,10.8-8.19.9-10.12-15.43-26.13,4.6-22.77Z"/>
    <path class="cls-2" d="M1222.9,1587.45c-18.13,1.22-16.27-17.18-15.47-30.99,18.13-1.22,16.27,17.18,15.47,30.99Z"/>
    <path class="cls-2" d="M1274.64,1613.32l-15.47.05.03-31.07c13.36,5.16,17.44,17.36,15.44,31.02Z"/>
    <path class="cls-2" d="M726.19,1618.51l-25.67-10.55c-1.81-44.67,30.3,5.71,25.67,10.55Z"/>
    <path class="cls-2" d="M1295.26,1608.21l15.62,30.95c-7.25,7.31-44.3-32.59-15.62-30.95Z"/>
    <path class="cls-2" d="M1181.48,1985.83c-9.55.13-5.46-22.33-4.64-27.97.76-5.24,2.12-19.36,9.82-18.54,6.79,17.95-3.19,29.22-5.17,46.51Z"/>
    <path class="cls-2" d="M1186.71,889.06l-25.82,46.49c-5.86-9.74,15.86-56.31,25.82-46.49Z"/>
    <path class="cls-2" d="M881.5,1002.83l2.51-36.19c10.15,7.05,10,31.56-2.51,36.19Z"/>
    <path class="cls-2" d="M788.29,976.93l-10.23.02-5.23-20.65c19.08-1.45,22.15,4.13,15.46,20.63Z"/>
    <path class="cls-2" d="M891.8,1359.78c-8.75,8.45-23.15-23.76-20.64-30.99,12.26,5.48,14.32,20.83,20.64,30.99Z"/>
    <path class="cls-2" d="M1202.2,961.47c-21.37,4.15-5.93-27.96,5.16-31.07l-5.16,31.07Z"/>
    <path class="cls-2" d="M638.28,1287.34l-31.02-12.86c6.04-15.75,29.33,5.34,31.02,12.86Z"/>
    <path class="cls-2" d="M1398.82,1308.16c.83,1.13-.34,7.1-.04,10.27l-25.82-5.22c-.17-12.82,23.15-8.73,25.85-5.05Z"/>
    <path class="cls-2" d="M1197.05,914.93l-15.47,20.64c-2.03-12.42,2.42-22,15.47-20.64Z"/>
    <path d="M969.43,1840.96l12.88-93.08c11.68,9.48,11.94,19.61,12.56,33.1.37,7.89-12.26,75.87-25.45,59.98Z"/>
    <path d="M1020.42,1753.81c4.13,2.54,11.24,29.33,10.84,37.27-.61,11.92-7.81,49.05-25.63,39.51,4.19-13.73,6.06-29.63,5.59-44.04-.46-13.88-13.37-46.61,9.2-32.73Z"/>
    <path d="M953.86,1840.96c-27.17-1.4-9.67-27.89-9.86-43.96-.15-13.21-6.97-25.4-5.6-38.78,36.59,6.23,16.24,56.85,15.47,82.73Z"/>
    <path d="M1222.89,1489.14c-1.31,12.6,3.07,23.52,11.1,32.95,2.82,3.31,46.61,28.88,22.59,29.05-2.42.02-32.37-15.45-36.04-20.79-4.91-7.15-17.92-46.39,2.34-41.21Z"/>
    <path d="M1031.47,1473.62c-10.93,10.89-28.5-17.09-12.83-20.64,10.85-2.46,16.6,16.89,12.83,20.64Z"/>
  </g>
  <rect class="cls-1" width="2048" height="3086"/>
</svg>